<svg width="179" height="40" viewBox="0 0 179 40" fill="none" xmlns="http://www.w3.org/2000/svg">
<path d="M48.4395 27.4709L50.9654 23.9864C51.864 24.9079 52.9434 25.6405 54.1383 26.1398C55.3332 26.6392 56.6187 26.8949 57.917 26.8915C60.4764 26.8915 61.7218 25.7295 61.7218 24.5033C61.7218 20.6978 49.1241 23.3099 49.1241 15.2118C49.1241 11.6319 52.2743 8.6626 57.4249 8.6626C60.9016 8.6626 63.7857 9.69461 65.9618 11.6632L63.3672 15.0193C61.5962 13.4062 59.2344 12.6639 57.0064 12.6639C54.9978 12.6639 53.8896 13.5346 53.8896 14.825C53.8896 18.2437 66.4556 15.9542 66.4556 23.9864C66.4556 27.9219 63.6016 30.8896 57.6961 30.8896C53.4929 30.8912 50.4749 29.5037 48.4395 27.4709Z" fill="#1A1B1E"/>
<path d="M68.4863 22.6974C68.4863 18.1809 71.8659 14.5352 76.6884 14.5352C81.4121 14.5352 84.6277 18.0196 84.6277 23.1155V24.0191H72.8502C73.113 25.9943 74.7199 27.632 77.4099 27.632C78.749 27.632 80.6254 27.051 81.6415 26.0832L83.4827 28.7282C81.9076 30.1487 79.4152 30.8894 76.9546 30.8894C72.1287 30.891 68.4863 27.6979 68.4863 22.6974ZM76.6884 17.7941C74.0972 17.7941 72.9807 19.6969 72.7832 21.2506H80.5919C80.4948 19.7611 79.4436 17.7941 76.6884 17.7941Z" fill="#1A1B1E"/>
<path d="M86.6289 22.6974C86.6289 17.9242 90.1441 14.5352 95.0268 14.5352C98.2742 14.5352 100.243 15.9227 101.292 17.3415L98.5688 19.8582C97.8138 18.7603 96.6656 18.1809 95.221 18.1809C92.6951 18.1809 90.9241 19.9915 90.9241 22.6974C90.9241 25.4034 92.6951 27.2452 95.221 27.2452C95.876 27.2566 96.5238 27.1095 97.1076 26.8171C97.6913 26.5247 98.1931 26.0957 98.5688 25.568L101.292 28.0517C100.243 29.5035 98.2792 30.891 95.0268 30.891C90.1391 30.891 86.6289 27.5036 86.6289 22.6974Z" fill="#1A1B1E"/>
<path d="M104.018 30.5042V14.922H108.184V17.0518C109.299 15.6643 111.267 14.5352 113.236 14.5352V18.5348C112.857 18.4633 112.473 18.4308 112.087 18.4377C110.71 18.4377 108.872 19.2113 108.184 20.2121V30.5026L104.018 30.5042Z" fill="#1A1B1E"/>
<path d="M114.811 22.6974C114.811 18.1809 118.19 14.5352 123.013 14.5352C127.736 14.5352 130.952 18.0196 130.952 23.1155V24.0191H119.181C119.444 25.9943 121.051 27.632 123.741 27.632C125.08 27.632 126.956 27.051 127.972 26.0832L129.814 28.7282C128.239 30.1487 125.746 30.8894 123.285 30.8894C118.453 30.891 114.811 27.6979 114.811 22.6974ZM123.013 17.7941C120.421 17.7941 119.305 19.6969 119.107 21.2506H126.916C126.819 19.7611 125.768 17.7941 123.013 17.7941Z" fill="#1A1B1E"/>
<path d="M143.485 30.5042V28.8912C142.402 30.1487 140.532 30.891 138.463 30.891C135.937 30.891 132.951 29.2138 132.951 25.7293C132.951 22.0835 135.936 20.6976 138.463 20.6976C140.562 20.6976 142.434 21.3757 143.485 22.6003V20.5034C143.485 18.9233 142.107 17.8913 140.008 17.8913C138.303 17.8913 136.727 18.5052 135.382 19.7298L133.807 16.9876C135.742 15.3104 138.236 14.5352 140.728 14.5352C144.337 14.5352 147.651 15.9556 147.651 20.4392V30.5042H143.485ZM143.485 26.7629V24.8273C142.795 23.9237 141.476 23.4727 140.137 23.4727C138.497 23.4727 137.153 24.3121 137.153 25.828C137.153 27.2798 138.492 28.1192 140.137 28.1192C141.485 28.1176 142.797 27.6649 143.485 26.7629Z" fill="#1A1B1E"/>
<path d="M152.607 26.6331V18.5037H149.98V14.9221H152.605V10.6641H156.805V14.9221H160.024V18.5037H156.805V25.5352C156.805 26.5031 157.331 27.2454 158.25 27.2454C158.874 27.2454 159.463 27.0199 159.692 26.7944L160.578 29.8921C159.954 30.4402 158.839 30.8928 157.101 30.8928C154.18 30.8912 152.607 29.4082 152.607 26.6331Z" fill="#1A1B1E"/>
<path d="M161.865 22.6974C161.865 18.1809 165.245 14.5352 170.067 14.5352C174.793 14.5352 178.007 18.0196 178.007 23.1155V24.0191H166.217C166.478 25.9943 168.087 27.632 170.777 27.632C172.116 27.632 173.993 27.051 175.009 26.0832L176.85 28.7282C175.275 30.1487 172.781 30.8894 170.322 30.8894C165.499 30.891 161.865 27.6979 161.865 22.6974ZM170.067 17.7941C167.476 17.7941 166.36 19.6969 166.164 21.2506H173.971C173.865 19.7611 172.816 17.7941 170.067 17.7941Z" fill="#1A1B1E"/>
<path d="M24.8221 16.9533H9.9245C7.19773 16.9533 4.96476 14.4103 4.96476 11.3011C4.96476 8.19191 7.19773 5.65056 9.92953 5.65056H24.8272C27.5573 5.65056 29.7919 8.19356 29.7919 11.3011H34.75C34.601 5.03003 30.13 0 24.8221 0H9.9245C4.36886 0 0 5.31149 0 11.3011C0 17.6874 4.61659 22.6022 9.92953 22.6022H24.8272C27.5573 22.6022 29.7919 25.1452 29.7919 28.2528C29.7919 31.3604 27.5523 33.9066 24.8221 33.9066H9.9245C7.19773 33.9066 4.96476 31.362 4.96476 28.2544H0C0.148976 34.6407 4.51951 39.5556 9.92953 39.5556H24.8272C30.3878 39.5556 34.7567 34.2441 34.7567 28.2544C34.75 21.9817 30.0346 16.9533 24.8221 16.9533Z" fill="#EF074A"/>
<path d="M17.3749 30.4353C18.329 30.4353 19.1024 29.6748 19.1024 28.7367C19.1024 27.7986 18.329 27.0381 17.3749 27.0381C16.4209 27.0381 15.6475 27.7986 15.6475 28.7367C15.6475 29.6748 16.4209 30.4353 17.3749 30.4353Z" fill="#EF074A"/>
</svg>
